<svg xmlns="http://www.w3.org/2000/svg" viewBox="0 0 800 420" width="800" height="420">
  <defs>
    <linearGradient id="bg" x1="0%" y1="0%" x2="100%" y2="100%">
      <stop offset="0%" stop-color="#0D0820"/><stop offset="100%" stop-color="#06040e"/>
    </linearGradient>
    <linearGradient id="accent" x1="0%" y1="0%" x2="100%" y2="0%">
      <stop offset="0%" stop-color="#A9FEF7"/><stop offset="100%" stop-color="#7F3FBF"/>
    </linearGradient>
    <filter id="g3" x="-30%" y="-30%" width="160%" height="160%">
      <feGaussianBlur stdDeviation="3" result="b"/>
      <feMerge><feMergeNode in="b"/><feMergeNode in="SourceGraphic"/></feMerge>
    </filter>
  </defs>

  <rect width="800" height="420" fill="url(#bg)"/>

  <!-- 3D card -->
  <rect x="22" y="22" width="756" height="376" rx="13" fill="#7F3FBF" opacity="0.14"/>
  <rect x="18" y="18" width="756" height="376" rx="13" fill="#1a0c30" opacity="0.52"/>
  <rect x="14" y="14" width="756" height="376" rx="11" fill="#110a22" stroke="#7F3FBF" stroke-width="0.8"/>
  <rect x="14" y="14" width="756" height="3"   rx="1"  fill="url(#accent)" opacity="0.85"/>
  <rect x="14" y="14" width="3"   height="376" rx="1"  fill="#A9FEF7" opacity="0.4"/>

  <!-- section label -->
  <text x="46" y="46"
    font-family="'Courier New',Courier,monospace"
    font-size="10" fill="#A9FEF7" letter-spacing="3" opacity="0.5">// TECH | TECNOLOGÍAS | TECHNOLOGIE | TECNOLOGIAS | 技术栈</text>

  <!-- ── WEB ── -->
  <text x="46" y="76" font-family="'Courier New',Courier,monospace" font-size="10" fill="#7F3FBF" letter-spacing="3" opacity="0.85">WEB</text>
  <g font-family="'Courier New',Courier,monospace" font-size="12">
    <rect x="96"  y="63" width="58"  height="20" rx="10" fill="#A9FEF7" opacity="0.10" stroke="#A9FEF7" stroke-width="0.6"/>
    <text x="125" y="78" fill="#A9FEF7" text-anchor="middle">HTML</text>
    <rect x="162" y="63" width="48"  height="20" rx="10" fill="#A9FEF7" opacity="0.10" stroke="#A9FEF7" stroke-width="0.6"/>
    <text x="186" y="78" fill="#A9FEF7" text-anchor="middle">CSS</text>
    <rect x="218" y="63" width="40"  height="20" rx="10" fill="#A9FEF7" opacity="0.10" stroke="#A9FEF7" stroke-width="0.6"/>
    <text x="238" y="78" fill="#A9FEF7" text-anchor="middle">JS</text>
    <rect x="266" y="63" width="96"  height="20" rx="10" fill="#A9FEF7" opacity="0.10" stroke="#A9FEF7" stroke-width="0.6"/>
    <text x="314" y="78" fill="#A9FEF7" text-anchor="middle">Bootstrap</text>
    <rect x="370" y="63" width="72"  height="20" rx="10" fill="#A9FEF7" opacity="0.10" stroke="#A9FEF7" stroke-width="0.6"/>
    <text x="406" y="78" fill="#A9FEF7" text-anchor="middle">Node.js</text>
  </g>

  <line x1="46" y1="98" x2="754" y2="98" stroke="#7F3FBF" stroke-width="0.5" opacity="0.28"/>

  <!-- ── BACKEND ── -->
  <text x="46" y="122" font-family="'Courier New',Courier,monospace" font-size="10" fill="#7F3FBF" letter-spacing="3" opacity="0.85">BACKEND</text>
  <g font-family="'Courier New',Courier,monospace" font-size="12">
    <rect x="122" y="109" width="38"  height="20" rx="10" fill="#C9B8FF" opacity="0.10" stroke="#C9B8FF" stroke-width="0.6"/>
    <text x="141"  y="124" fill="#C9B8FF" text-anchor="middle">C#</text>
    <rect x="168"  y="109" width="48"  height="20" rx="10" fill="#C9B8FF" opacity="0.10" stroke="#C9B8FF" stroke-width="0.6"/>
    <text x="192"  y="124" fill="#C9B8FF" text-anchor="middle">.NET</text>
    <rect x="224"  y="109" width="70"  height="20" rx="10" fill="#C9B8FF" opacity="0.10" stroke="#C9B8FF" stroke-width="0.6"/>
    <text x="259"  y="124" fill="#C9B8FF" text-anchor="middle">Python</text>
    <rect x="302"  y="109" width="50"  height="20" rx="10" fill="#C9B8FF" opacity="0.10" stroke="#C9B8FF" stroke-width="0.6"/>
    <text x="327"  y="124" fill="#C9B8FF" text-anchor="middle">Java</text>
  </g>

  <line x1="46" y1="144" x2="754" y2="144" stroke="#7F3FBF" stroke-width="0.5" opacity="0.28"/>

  <!-- ── DATA & TOOLS ── -->
  <text x="46" y="168" font-family="'Courier New',Courier,monospace" font-size="10" fill="#7F3FBF" letter-spacing="3" opacity="0.85">DATA &amp; TOOLS · HERRAMIENTAS · FERRAMENTAS · 工具</text>
  <g font-family="'Courier New',Courier,monospace" font-size="12">
    <rect x="46"  y="174" width="60"  height="20" rx="10" fill="#A9FEF7" opacity="0.08" stroke="#A9FEF7" stroke-width="0.6"/>
    <text x="76"  y="189" fill="#A9FEF7" text-anchor="middle">SQL</text>
    <rect x="114" y="174" width="40"  height="20" rx="10" fill="#A9FEF7" opacity="0.08" stroke="#A9FEF7" stroke-width="0.6"/>
    <text x="134" y="189" fill="#A9FEF7" text-anchor="middle">Git</text>
    <rect x="162" y="174" width="66"  height="20" rx="10" fill="#A9FEF7" opacity="0.08" stroke="#A9FEF7" stroke-width="0.6"/>
    <text x="195" y="189" fill="#A9FEF7" text-anchor="middle">Terminal</text>
    <rect x="236" y="174" width="66"  height="20" rx="10" fill="#A9FEF7" opacity="0.08" stroke="#A9FEF7" stroke-width="0.6"/>
    <text x="269" y="189" fill="#A9FEF7" text-anchor="middle">NeoVim</text>
  </g>

  <line x1="46" y1="208" x2="754" y2="208" stroke="#7F3FBF" stroke-width="0.5" opacity="0.28"/>

  <!-- ── PLATFORMS ── -->
  <text x="46" y="232" font-family="'Courier New',Courier,monospace" font-size="10" fill="#7F3FBF" letter-spacing="3" opacity="0.85">PLATFORMS · PLATAFORMAS · 平台</text>
  <g font-family="'Courier New',Courier,monospace" font-size="12">
    <rect x="46"  y="238" width="104" height="20" rx="10" fill="#C9B8FF" opacity="0.08" stroke="#C9B8FF" stroke-width="0.6"/>
    <text x="98"  y="253" fill="#C9B8FF" text-anchor="middle">ServiceNow</text>
    <rect x="158" y="238" width="136" height="20" rx="10" fill="#C9B8FF" opacity="0.08" stroke="#C9B8FF" stroke-width="0.6"/>
    <text x="226" y="253" fill="#C9B8FF" text-anchor="middle">Android Studio</text>
    <rect x="302" y="238" width="54"  height="20" rx="10" fill="#C9B8FF" opacity="0.08" stroke="#C9B8FF" stroke-width="0.6"/>
    <text x="329" y="253" fill="#C9B8FF" text-anchor="middle">Unity</text>
    <rect x="364" y="238" width="72"  height="20" rx="10" fill="#C9B8FF" opacity="0.08" stroke="#C9B8FF" stroke-width="0.6"/>
    <text x="400" y="253" fill="#C9B8FF" text-anchor="middle">Arduino</text>
  </g>

  <line x1="46" y1="272" x2="754" y2="272" stroke="#7F3FBF" stroke-width="0.5" opacity="0.28"/>

  <!-- ── LEARNING ── -->
  <text x="46" y="296" font-family="'Courier New',Courier,monospace" font-size="10" fill="#7F3FBF" letter-spacing="3" opacity="0.85">LEARNING · APRENDIENDO · APRENDENDO · 学习中</text>
  <g font-family="'Courier New',Courier,monospace" font-size="12">
    <circle cx="60" cy="314" r="4" fill="#A9FEF7" opacity="0.9">
      <animate attributeName="r"       values="4;6;4"       dur="1.4s" repeatCount="indefinite"/>
      <animate attributeName="opacity" values="0.9;0.2;0.9" dur="1.4s" repeatCount="indefinite"/>
    </circle>
    <text x="72" y="319" fill="#A9FEF7">AI Agents</text>
    <circle cx="178" cy="314" r="4" fill="#C9B8FF" opacity="0.9">
      <animate attributeName="r"       values="4;6;4"       dur="1.8s" begin="0.4s" repeatCount="indefinite"/>
      <animate attributeName="opacity" values="0.9;0.2;0.9" dur="1.8s" begin="0.4s" repeatCount="indefinite"/>
    </circle>
    <text x="190" y="319" fill="#C9B8FF">Unix</text>
    <circle cx="356" cy="314" r="4" fill="#A9FEF7" opacity="0.9">
      <animate attributeName="r"       values="4;6;4"       dur="2.2s" begin="0.8s" repeatCount="indefinite"/>
      <animate attributeName="opacity" values="0.9;0.2;0.9" dur="2.2s" begin="0.8s" repeatCount="indefinite"/>
    </circle>
    <text x="368" y="319" fill="#A9FEF7">Cybersecurity</text>
  </g>

  <line x1="46" y1="338" x2="754" y2="338" stroke="#7F3FBF" stroke-width="0.5" opacity="0.28"/>

  <text x="754" y="388" font-family="'Courier New',Courier,monospace" font-size="9" fill="#7F3FBF" text-anchor="end" opacity="0.3">v2026</text>
</svg>
