<svg xmlns="http://www.w3.org/2000/svg" viewBox="0 0 800 430" width="800" height="430">
  <defs>
    <linearGradient id="bg" x1="0%" y1="0%" x2="100%" y2="100%">
      <stop offset="0%" stop-color="#0D0820"/><stop offset="100%" stop-color="#06040e"/>
    </linearGradient>
    <linearGradient id="accent" x1="0%" y1="0%" x2="100%" y2="0%">
      <stop offset="0%" stop-color="#A9FEF7"/><stop offset="100%" stop-color="#7F3FBF"/>
    </linearGradient>
    <linearGradient id="card-a" x1="0%" y1="0%" x2="100%" y2="100%">
      <stop offset="0%" stop-color="#1a0c30"/><stop offset="100%" stop-color="#0d0618"/>
    </linearGradient>
    <linearGradient id="card-b" x1="0%" y1="0%" x2="100%" y2="100%">
      <stop offset="0%" stop-color="#091828"/><stop offset="100%" stop-color="#060e18"/>
    </linearGradient>
  </defs>

  <rect width="800" height="430" fill="url(#bg)"/>

  <!-- outer 3D card -->
  <rect x="22" y="22" width="760" height="386" rx="14" fill="#7F3FBF" opacity="0.14"/>
  <rect x="18" y="18" width="760" height="386" rx="14" fill="#1a0c30" opacity="0.5"/>
  <rect x="14" y="14" width="760" height="386" rx="12" fill="#110a22" stroke="#7F3FBF" stroke-width="0.8"/>
  <rect x="14" y="14" width="760" height="3"   rx="1"  fill="url(#accent)" opacity="0.8"/>
  <rect x="14" y="14" width="3"   height="386" rx="1"  fill="#A9FEF7" opacity="0.4"/>

  <text x="46" y="52" font-family="'Courier New',Courier,monospace" font-size="11" fill="#A9FEF7" letter-spacing="4" opacity="0.55">// PROJECTS</text>

  <!-- ── CARD 1 — Portfolio (top-left) ── -->
  <rect x="36" y="74" width="352" height="138" rx="10" fill="#A9FEF7" opacity="0.04"/>
  <rect x="32" y="70" width="352" height="138" rx="10" fill="url(#card-a)" stroke="#A9FEF7" stroke-width="0.6" opacity="0.45"/>
  <rect x="32" y="70" width="352" height="2.5" rx="1"  fill="#A9FEF7" opacity="0.55"/>
  <text x="52" y="96"  font-family="'Courier New',Courier,monospace" font-size="15" font-weight="700" fill="#A9FEF7">Sacred Bible</text>
  <text x="52" y="116" font-family="'Courier New',Courier,monospace" font-size="12" fill="#C9B8FF" opacity="0.7">Bible in Portuguese</text>
  <text x="52" y="136" font-family="'Courier New',Courier,monospace" font-size="11" fill="#7F3FBF" opacity="0.8">HTML · CSS · JS</text>
  <text x="52" y="155" font-family="'Courier New',Courier,monospace" font-size="11" fill="#A9FEF7" opacity="0.5">eduardo2580.github.io</text>

  <!-- ── CARD 2 — O Futuro do Trabalho (top-right) ── -->
  <rect x="420" y="74" width="354" height="138" rx="10" fill="#C9B8FF" opacity="0.03"/>
  <rect x="416" y="70" width="354" height="138" rx="10" fill="url(#card-b)" stroke="#C9B8FF" stroke-width="0.6" opacity="0.45"/>
  <rect x="416" y="70" width="354" height="2.5" rx="1"  fill="#C9B8FF" opacity="0.45"/>
  <text x="436" y="96"  font-family="'Courier New',Courier,monospace" font-size="14" font-weight="700" fill="#C9B8FF">JavaProjects</text>
  <text x="436" y="116" font-family="'Courier New',Courier,monospace" font-size="12" fill="#A9FEF7" opacity="0.65">All my Java Projects.</text>
  <!-- trophy badge — decorative only, no button shape -->
  <text x="436" y="136" font-family="'Courier New',Courier,monospace" font-size="11" fill="#7F3FBF" opacity="0.8">Java</text>
  <text x="436" y="155" font-family="'Courier New',Courier,monospace" font-size="11" fill="#C9B8FF" opacity="0.45">github.com/eduardo2580/JavaProjects</text>

  <!-- ── CARD 3 — Campo Minado (bottom-left) ── -->
  <rect x="36" y="232" width="352" height="120" rx="10" fill="#A9FEF7" opacity="0.03"/>
  <rect x="32" y="228" width="352" height="120" rx="10" fill="url(#card-a)" stroke="#A9FEF7" stroke-width="0.6" opacity="0.35"/>
  <rect x="32" y="228" width="352" height="2.5" rx="1"  fill="#7F3FBF" opacity="0.65"/>
  <text x="52" y="254" font-family="'Courier New',Courier,monospace" font-size="15" font-weight="700" fill="#A9FEF7">Campo Minado</text>
  <text x="52" y="274" font-family="'Courier New',Courier,monospace" font-size="12" fill="#C9B8FF" opacity="0.65">Minesweeper implementation</text>
  <text x="52" y="294" font-family="'Courier New',Courier,monospace" font-size="11" fill="#7F3FBF" opacity="0.8">Web</text>
  <text x="52" y="313" font-family="'Courier New',Courier,monospace" font-size="11" fill="#A9FEF7" opacity="0.45">github.com/eduardo2580/minesweeper</text>

  <!-- ── CARD 4 — Legalização da Maconha (bottom-right) ── -->
  <rect x="420" y="232" width="354" height="120" rx="10" fill="#C9B8FF" opacity="0.02"/>
  <rect x="416" y="228" width="354" height="120" rx="10" fill="url(#card-b)" stroke="#C9B8FF" stroke-width="0.6" opacity="0.3"/>
  <rect x="416" y="228" width="354" height="2.5" rx="1"  fill="#A9FEF7" opacity="0.4"/>
  <text x="436" y="254" font-family="'Courier New',Courier,monospace" font-size="14" font-weight="700" fill="#C9B8FF">Legalização da Maconha</text>
  <text x="436" y="274" font-family="'Courier New',Courier,monospace" font-size="12" fill="#A9FEF7" opacity="0.65">2022 · School project</text>
  <text x="436" y="294" font-family="'Courier New',Courier,monospace" font-size="11" fill="#7F3FBF" opacity="0.8">HTML · CSS</text>
  <text x="436" y="313" font-family="'Courier New',Courier,monospace" font-size="11" fill="#C9B8FF" opacity="0.45">github.com/eduardo2580/EMED_SENAC</text>

  <!-- exploration hook -->
  <line x1="46" y1="368" x2="754" y2="368" stroke="#7F3FBF" stroke-width="0.5" opacity="0.3"/>
  <text x="400" y="390" font-family="'Courier New',Courier,monospace" font-size="11"
    fill="#A9FEF7" text-anchor="middle" letter-spacing="2" opacity="0.4">more certifications &amp; achievements below  ↓</text>
</svg>
